<svg width="102" height="121" viewBox="0 0 102 121" fill="none" xmlns="http://www.w3.org/2000/svg">
<path fill-rule="evenodd" clip-rule="evenodd" d="M10.1052 20.7671C3.85798 24.3236 0 30.9593 0 38.1479V82.9111C0 90.1283 3.88841 96.7857 10.1747 100.331L40.2951 117.32C46.3054 120.71 53.6387 120.762 59.6967 117.458L91.1972 100.278C97.6229 96.7731 101.621 90.0385 101.621 82.7193V38.3402C101.621 31.0491 97.6532 24.3357 91.266 20.8196L59.7666 3.47934C53.6723 0.124456 46.2725 0.177412 40.2268 3.61916L10.1052 20.7671ZM50.6039 13.5564L12.8486 35.2697V87.2409L50.6039 108.753L89.6484 87.2409V35.2697L50.6039 13.5564Z" fill="white"/>
<path d="M20.1247 39.9566L50.9592 23.2774L63.3202 30.2657L21.1008 53.5206L20.1247 39.9566Z" fill="white"/>
<path d="M45.8435 41.6836L65.0714 31.0969L77.0768 37.2997L55.2257 48.5888L55.2879 90.2446L45.9227 94.8555L45.8435 41.6836Z" fill="white"/>
<path d="M58.6156 77.7538L88.2184 93.0028L82.9118 103.096L58.6156 90.2099L58.6156 77.7538Z" fill="white"/>
<path fill-rule="evenodd" clip-rule="evenodd" d="M0 37.0084C0 30.5386 3.47218 24.5665 9.09471 21.3656L41.1999 3.08845C46.641 -0.00912732 53.3008 -0.0567892 58.7857 2.9626L92.3015 21.4129C98.05 24.5774 101.621 30.6195 101.621 37.1815V83.9299C101.621 90.5172 98.0227 96.5783 92.2396 99.7324L58.7227 118.012C56.1606 119.41 53.3449 120.14 50.5185 120.205V108.776L89.6484 87.2641V35.293L50.6039 13.5797L12.8486 35.293V79.5056L0.00468382 84.5139C0.00156551 84.377 0 84.2399 0 84.1025V37.0084Z" fill="white"/>
</svg>
